ply
format ascii 1.0
element vertex 88
property float x
property float y
property float z
end_header
0.0725517 -0.142734 -0.159466
0.267653 -0.154943 0.950976
0.267653 -0.154943 0.950976
0.267653 -0.154943 0.950976
0.267653 -0.154943 0.950976
0.267653 -0.154943 0.950976
0.267653 -0.154943 0.950976
0.267653 -0.154943 0.950976
0.267653 -0.154943 0.950976
0.00135061 -0.0163855 -0.237279
0.267653 -0.154943 0.950976
0.267653 -0.154943 0.950976
0.00333945 -0.0326348 -0.00926688
0.00333945 -0.0326348 -0.00926688
0.267653 -0.154943 0.950976
0.267653 -0.154943 0.950976
0.267653 -0.154943 0.950976
0.267653 -0.154943 0.950976
0.267653 -0.154943 0.950976
0.267653 -0.154943 0.950976
0.856751 -0.123179 1.4082
0.267653 -0.154943 0.950976
0.267653 -0.154943 0.950976
0.267653 -0.154943 0.950976
0.267653 -0.154943 0.950976
0.267653 -0.154943 0.950976
0.267653 -0.154943 0.950976
0.267653 -0.154943 0.950976
0.0025395 -0.0408263 0.0541185
0.267653 -0.154943 0.950976
0.267653 -0.154943 0.950976
0.267653 -0.154943 0.950976
0.267653 -0.154943 0.950976
0.267653 -0.154943 0.950976
0.267653 -0.154943 0.950976
0.267653 -0.154943 0.950976
0.267653 -0.154943 0.950976
0.00166621 0.029167 -0.0554166
-0.162181 0.115179 -2.17805
-0.00978491 -0.0916144 0.216891
-0.0165061 -0.0919326 0.23604
0.267653 -0.154943 0.950976
0.267653 -0.154943 0.950976
0.267653 -0.154943 0.950976
0.267653 -0.154943 0.950976
0.267653 -0.154943 0.950976
0.267653 -0.154943 0.950976
0.267653 -0.154943 0.950976
0.267653 -0.154943 0.950976
0.267653 -0.154943 0.950976
0.267653 -0.154943 0.950976
0.267653 -0.154943 0.950976
0.267653 -0.154943 0.950976
0.267653 -0.154943 0.950976
0.267653 -0.154943 0.950976
0.267653 -0.154943 0.950976
-7.70274e-05 0.00584586 -0.0417218
0.267653 -0.154943 0.950976
-0.0234539 0.107302 -0.55097
0.267653 -0.154943 0.950976
0.267653 -0.154943 0.950976
-0.0177274 -0.0668225 0.292277
-0.0177274 -0.0668225 0.292277
-0.0023633 0.0342011 -0.187123
0.267653 -0.154943 0.950976
0.267653 -0.154943 0.950976
0.267653 -0.154943 0.950976
0.267653 -0.154943 0.950976
-0.00072893 -0.011296 0.116511
0.000441175 0.00616931 0.0377572
0.267653 -0.154943 0.950976
-0.0563506 -0.0905573 0.279804
-0.0903432 -0.0848481 0.283787
0.267653 -0.154943 0.950976
0.267653 -0.154943 0.950976
0.267653 -0.154943 0.950976
0.267653 -0.154943 0.950976
-0.0350659 0.0017342 -0.924829
0.267653 -0.154943 0.950976
0.267653 -0.154943 0.950976
0.267653 -0.154943 0.950976
0.267653 -0.154943 0.950976
0.267653 -0.154943 0.950976
0.267653 -0.154943 0.950976
0.0461963 -0.113182 -0.102404
0.267653 -0.154943 0.950976
0.267653 -0.154943 0.950976
0.267653 -0.154943 0.950976
